<svg width="32" height="32" viewBox="0 0 32 32" fill="none" xmlns="http://www.w3.org/2000/svg">
    <path
        d="M27.8738 24.1633V15.3474C27.8738 14.0239 27.3452 12.7539 26.3839 11.8441C25.2571 10.7777 23.6938 9.33909 22.4316 8.3315C20.0442 6.42554 18.8527 4.86829 16 4.86829C13.1473 4.86829 11.9557 6.42554 9.56828 8.3315C8.30616 9.33909 6.74281 10.7777 5.61599 11.8441C4.65473 12.7539 4.1261 14.024 4.1261 15.3474V24.1633C4.1261 25.8027 5.45513 27.1318 7.09456 27.1318H11.0525C12.1455 27.1318 13.0315 26.2458 13.0315 25.1528V20.8045C13.0315 19.812 13.5275 18.8852 14.3534 18.3346C15.3505 17.6699 16.6495 17.6699 17.6466 18.3346C18.4724 18.8852 18.9684 19.812 18.9684 20.8045V25.1528C18.9684 26.2458 19.8544 27.1318 20.9474 27.1318H24.9054C26.5448 27.1318 27.8738 25.8027 27.8738 24.1633Z"
        fill="#f3f5f7" />
</svg>
